<?xml version="1.0" standalone="no"?>
<!DOCTYPE svg PUBLIC "-//W3C//DTD SVG 20010904//EN"
 "http://www.w3.org/TR/2001/REC-SVG-20010904/DTD/svg10.dtd">
<svg version="1.0" xmlns="http://www.w3.org/2000/svg"
 width="420.000000pt" height="420.000000pt" viewBox="0 0 420.000000 420.000000"
 preserveAspectRatio="xMidYMid meet">

<g transform="translate(0.000000,420.000000) scale(0.100000,-0.100000)"
fill="#000000" stroke="none">
<path d="M2565 3835 c-81 -15 -136 -36 -181 -70 -27 -21 -36 -23 -65 -15 -100
29 -208 2 -298 -74 -24 -20 -49 -35 -55 -33 -139 54 -478 11 -608 -76 -18 -13
-54 -31 -80 -40 -53 -20 -149 -81 -191 -121 -24 -22 -34 -25 -65 -20 -95 15
-267 -50 -339 -129 -67 -73 -172 -264 -198 -362 -23 -84 -20 -221 6 -320 11
-44 43 -134 70 -201 27 -67 49 -127 49 -135 0 -8 14 -42 30 -77 35 -71 63
-171 79 -287 26 -175 42 -224 75 -226 6 0 30 -30 54 -67 50 -78 202 -251 252
-287 69 -51 159 -70 320 -70 160 1 256 19 475 92 88 29 319 125 333 138 2 2
10 29 18 62 9 32 38 106 66 165 56 119 56 113 8 264 -25 77 -25 53 -1 -44 18
-73 25 -112 22 -139 -1 -6 -14 -14 -30 -18 -16 -3 -49 -23 -73 -44 -24 -21
-104 -82 -178 -136 -74 -54 -162 -121 -195 -149 -33 -29 -71 -59 -85 -68 -50
-31 -176 -70 -245 -75 -117 -9 -329 28 -415 72 -36 18 -229 215 -268 272 -95
139 -140 334 -100 426 17 36 18 37 70 37 127 0 197 44 253 159 22 44 43 80 47
81 4 0 24 -14 45 -31 l38 -32 -37 37 c-42 40 -44 52 -23 111 8 22 14 54 15 71
0 20 11 42 34 67 29 32 40 37 78 37 59 0 108 -47 108 -102 0 -131 63 -298 130
-347 52 -38 92 -47 198 -44 174 4 262 59 311 196 7 17 18 27 31 27 12 0 19 4
16 9 -3 5 1 14 9 21 22 18 19 67 -5 82 -28 18 -26 63 5 90 19 16 25 32 25 60
0 21 3 38 6 38 4 0 41 -30 82 -67 166 -149 256 -251 310 -353 l29 -56 25 28
c32 34 87 38 136 8 17 -11 32 -15 32 -10 0 5 14 16 30 25 32 16 43 42 13 30
-46 -19 -50 -18 -56 22 -4 21 -9 53 -13 71 -6 31 -5 32 24 32 17 0 35 -6 39
-13 4 -6 24 -24 44 -39 87 -65 73 -249 -28 -382 -38 -48 -105 -95 -111 -77 -2
6 10 54 27 107 17 54 29 99 27 101 -6 6 -61 -104 -71 -143 -6 -22 -25 -64 -43
-92 -18 -29 -32 -60 -32 -70 0 -21 -52 -133 -81 -173 -20 -29 -20 -59 0 -59 6
0 8 7 5 15 -3 8 8 40 25 70 18 31 40 77 51 103 10 26 19 40 20 32 0 -8 12 4
26 28 14 23 29 42 33 42 5 0 17 -29 26 -65 14 -52 17 -88 12 -178 -4 -95 -2
-122 14 -168 10 -30 18 -64 19 -77 0 -13 4 -20 10 -17 6 4 10 60 10 136 l0
131 30 30 c28 27 36 30 75 25 48 -5 115 -48 115 -73 0 -16 16 -19 25 -4 10 15
63 12 102 -7 52 -24 76 -85 77 -192 1 -78 -1 -85 -25 -103 -34 -26 -118 -28
-154 -4 -24 16 -27 23 -21 54 l5 36 -25 -38 -25 -37 21 -34 c24 -39 82 -61
133 -51 l29 6 -6 -63 c-18 -180 -33 -253 -71 -326 -12 -25 -47 -69 -77 -98
-43 -40 -70 -56 -123 -72 -137 -43 -289 -37 -367 13 -18 11 -58 34 -88 51 -42
23 -66 46 -101 97 -53 77 -99 204 -100 275 0 43 -1 45 -11 23 -5 -14 -8 -60
-6 -103 4 -69 10 -89 52 -172 27 -54 66 -112 92 -139 75 -75 183 -116 309
-116 46 0 61 -6 127 -50 50 -34 86 -67 112 -104 91 -132 234 -216 366 -216
119 0 258 73 410 215 59 55 132 123 162 150 65 60 95 111 80 135 -6 10 -7 22
-1 31 12 20 11 79 -2 79 -5 0 -40 -18 -76 -40 -104 -62 -164 -65 -229 -8 -40
35 -64 105 -64 184 0 29 13 123 29 208 l30 157 88 101 c123 141 181 216 208
268 56 110 68 215 39 345 -45 206 -57 293 -74 535 -17 242 -66 389 -172 520
-26 33 -52 78 -58 102 -21 80 -118 264 -179 341 -151 189 -396 320 -670 356
-46 6 -87 11 -90 10 -3 0 -37 -7 -76 -14z m-1066 -640 c29 -14 71 -39 93 -57
41 -32 188 -203 188 -218 0 -9 -86 -30 -120 -30 -23 0 -106 -35 -114 -48 -4
-6 46 -10 132 -10 187 0 201 -5 320 -118 l97 -93 -60 14 c-33 8 -76 19 -95 25
-60 18 -192 23 -281 11 -132 -17 -184 -36 -230 -82 l-40 -40 -34 29 c-60 54
-122 51 -172 -8 l-25 -30 -20 25 c-30 39 -74 57 -181 74 l-97 17 26 51 c23 46
31 54 80 73 30 11 71 20 92 20 20 0 47 3 60 6 21 6 22 8 7 24 -22 24 -107 44
-152 35 -21 -4 -48 -19 -65 -37 -36 -39 -37 -23 -3 87 28 94 69 160 128 207
70 57 97 68 212 82 163 20 193 19 254 -9z m408 -558 c93 -20 103 -33 103 -131
0 -286 -77 -383 -308 -389 -42 -1 -94 2 -115 6 -50 11 -99 56 -122 111 -10 25
-22 43 -26 40 -4 -2 -5 6 -1 18 4 15 2 19 -7 13 -10 -6 -11 -3 -2 14 11 20 8
26 -13 22 -5 -1 -4 5 3 13 15 17 7 51 -9 41 -5 -3 -10 1 -10 9 0 9 3 16 8 16
4 0 7 26 7 57 0 51 3 61 30 88 41 40 61 51 125 64 114 23 248 26 337 8z m-871
-42 c87 -25 104 -61 79 -171 -14 -63 -19 -74 -33 -69 -10 4 -45 9 -78 12 -55
5 -68 2 -124 -26 -51 -26 -61 -28 -57 -14 3 10 9 76 12 147 l7 129 -53 -7
c-30 -4 -72 -16 -94 -26 l-40 -19 27 24 c16 14 46 26 70 29 24 3 54 8 68 10
41 7 161 -4 216 -19z m1052 -23 c2 -24 -1 -32 -12 -32 -9 0 -16 8 -16 19 0 11
-3 27 -6 36 -5 13 -2 16 12 13 13 -2 20 -13 22 -36z m-1441 -94 c-3 -7 -5 -2
-5 12 0 14 2 19 5 13 2 -7 2 -19 0 -25z m-10 -175 c-2 -27 -3 -5 -3 47 0 52 1
74 3 48 2 -27 2 -69 0 -95z m416 46 c20 -5 37 -12 37 -15 0 -14 -63 -126 -86
-154 -53 -63 -144 -84 -254 -58 -54 12 -111 62 -109 96 0 13 2 12 9 -4 11 -27
66 -70 102 -79 33 -8 43 7 58 98 10 54 16 67 30 67 11 0 22 5 26 11 26 42 110
60 187 38z"/>
<path d="M1715 2384 c-83 -21 -135 -55 -135 -87 0 -16 7 -13 44 21 54 50 112
64 211 52 39 -5 90 -16 115 -25 25 -9 40 -12 35 -7 -33 30 -212 61 -270 46z"/>
<path d="M813 2183 c-3 -10 -8 -22 -11 -27 -3 -5 0 -6 5 -3 11 7 25 47 17 47
-3 0 -7 -8 -11 -17z"/>
<path d="M1330 2480 c0 -5 5 -10 10 -10 6 0 10 5 10 10 0 6 -4 10 -10 10 -5 0
-10 -4 -10 -10z"/>
<path d="M1181 2394 c0 -11 3 -14 6 -6 3 7 2 16 -1 19 -3 4 -6 -2 -5 -13z"/>
<path d="M2025 2230 c3 -5 8 -10 11 -10 2 0 4 5 4 10 0 6 -5 10 -11 10 -5 0
-7 -4 -4 -10z"/>
<path d="M1047 2094 c-4 -4 -7 -14 -7 -23 0 -11 3 -12 11 -4 6 6 10 16 7 23
-2 6 -7 8 -11 4z"/>
<path d="M2292 2035 c0 -16 2 -22 5 -12 2 9 2 23 0 30 -3 6 -5 -1 -5 -18z"/>
<path d="M1110 2007 c0 -3 7 -21 15 -40 21 -50 49 -67 115 -67 61 0 100 19
100 50 0 17 -6 18 -69 13 -81 -7 -108 -1 -139 27 -12 11 -22 19 -22 17z"/>
<path d="M1744 1891 c10 -10 13 -22 8 -25 -13 -8 -207 -52 -287 -65 -44 -7
-81 -8 -100 -3 -17 5 -45 7 -63 4 -18 -2 -52 3 -77 13 -25 9 -74 18 -111 20
-89 6 -104 11 -104 41 0 15 -6 24 -15 24 -19 0 -19 -5 0 -33 8 -12 17 -47 20
-77 13 -110 91 -222 188 -269 97 -47 252 -12 397 91 101 71 118 97 33 49 -85
-48 -207 -91 -258 -91 -19 0 -52 7 -73 16 l-37 17 114 13 c63 8 115 15 117 16
1 2 -61 3 -139 3 -113 0 -150 4 -180 17 -40 18 -42 38 -4 38 16 0 18 3 8 9
-23 15 1 20 150 31 79 6 178 14 220 17 89 7 152 -2 144 -20 -4 -7 12 8 34 32
29 31 41 52 41 74 0 25 2 28 15 17 12 -10 15 -10 15 2 0 24 -30 58 -52 58 -20
0 -20 -1 -4 -19z"/>
<path d="M1615 1680 c-3 -6 1 -7 9 -4 18 7 21 14 7 14 -6 0 -13 -4 -16 -10z"/>
<path d="M2202 1200 c0 -14 2 -19 5 -12 2 6 2 18 0 25 -3 6 -5 1 -5 -13z"/>
<path d="M2900 1130 c-15 -29 -83 -60 -129 -60 -22 0 -62 5 -88 11 -42 10 -55
9 -86 -6 -51 -24 -151 -121 -143 -137 4 -7 13 -24 21 -38 13 -23 14 -23 20 -5
30 95 40 110 93 137 45 23 57 25 89 16 55 -15 148 -6 181 19 25 19 70 83 58
83 -3 0 -10 -9 -16 -20z"/>
</g>
</svg>
