<svg width="159" height="159" fill="none" xmlns="http://www.w3.org/2000/svg"><path d="m78.042 137.208-.636 8.284-3.605-.277c-1.562-.12-2.482-.999-2.384-2.273v-.012a1.84 1.84 0 0 1 1.741-1.679l.003-.035c-1.148-.175-1.918-1.054-1.834-2.139v-.011c.112-1.453 1.278-2.276 3.047-2.14l3.668.282Zm-3.695 6.756 1.424.109.167-2.176-1.211-.093c-.976-.075-1.53.293-1.585 1.01v.012c-.052.66.396 1.075 1.205 1.138Zm.263-3.353 1.418.109.181-2.354-1.493-.114c-.993-.076-1.57.289-1.628 1.059l-.001.011c-.059.758.461 1.208 1.523 1.289ZM69.69 136.435l-4.72 7.429-1.99-.466-.926-8.75 1.777.416.152 2.105 2.859.669 1.07-1.819 1.777.416Zm-5.327 5.631 1.79-3.053-2.074-.485.25 3.53.034.008ZM57.601 132.733c2.254.908 3.062 2.984 2.061 5.467l-.002.006c-1 2.483-3.024 3.406-5.272 2.5-1.87-.754-2.734-2.474-2.225-4.168l.014-.051 1.57.633-.015.099c-.16.923.246 1.732 1.207 2.12 1.233.497 2.424-.178 3.074-1.791l.002-.005c.655-1.624.269-2.946-.965-3.443-.929-.375-1.796-.103-2.372.726l-.032.049-1.57-.633.029-.056c.81-1.58 2.633-2.205 4.496-1.453ZM52.473 130.608l-4.246 7.142-1.494-.889 1.942-3.267-.035-.02-4.56 1.71-1.663-.989 4.433-1.631-.37-5.619 1.786 1.062.252 4.229 1.16-.429 1.3-2.188 1.495.889ZM36.665 118.368l-5.133 4.574 1.598 1.793-1.07.954-4.356-4.888 1.07-.954 1.602 1.797 5.132-4.574 1.157 1.298ZM30.643 110.3c1.343 2.074.791 4.262-1.427 5.699l-.01.006c-2.218 1.437-4.442 1.032-5.778-1.032-1.34-2.068-.791-4.262 1.422-5.695l.01-.006c2.218-1.437 4.44-1.045 5.783 1.028Zm-1.237.802c-.751-1.16-2.137-1.278-3.582-.342l-.01.006c-1.455.942-1.89 2.261-1.149 3.406.739 1.141 2.118 1.29 3.578.345l.01-.007c1.459-.945 1.895-2.263 1.153-3.408ZM23.682 95.323l-6.629 1.822.637 2.315-1.383.38-1.735-6.313 1.383-.38.638 2.321 6.629-1.821.46 1.676ZM21.866 85.421c.283 2.454-1.182 4.17-3.808 4.474l-.011.001c-2.625.303-4.439-1.046-4.72-3.489-.283-2.448 1.181-4.17 3.8-4.473l.012-.001c2.626-.303 4.444 1.035 4.727 3.488Zm-1.464.17c-.159-1.373-1.35-2.094-3.06-1.896l-.01.001c-1.722.199-2.698 1.187-2.542 2.542.156 1.35 1.326 2.096 3.054 1.897l.011-.002c1.727-.2 2.703-1.187 2.547-2.543ZM21.307 79.835l-8.302-.318.127-3.337c.067-1.75 1.24-2.874 2.949-2.808h.011c1.709.066 2.792 1.277 2.725 3.026l-.061 1.6 2.617.1-.066 1.737ZM14.49 76.66l-.045 1.173 2.952.113.045-1.173c.038-.996-.469-1.603-1.413-1.64h-.011c-.944-.036-1.49.531-1.528 1.526ZM31.39 46.374l-6.607-5.037 2.192-2.876c.95-1.245 2.187-1.54 3.204-.765l.009.007a1.84 1.84 0 0 1 .464 2.374l.027.02c.77-.867 1.927-1.036 2.792-.376l.01.007c1.158.883 1.215 2.31.14 3.72l-2.23 2.926ZM27.728 39.6l-.865 1.136 1.735 1.323.736-.966c.594-.779.587-1.443.014-1.88l-.01-.007c-.526-.401-1.118-.251-1.61.394Zm2.67 2.043-.861 1.131 1.877 1.431.908-1.19c.604-.792.61-1.475-.004-1.943l-.009-.007c-.604-.46-1.264-.269-1.91.578ZM36.58 39.783l-3.671-7.999 1.473-1.417 7.848 3.978-1.315 1.266-1.85-1.017-2.116 2.036.946 1.887-1.316 1.266Zm-1.831-7.532 1.588 3.162 1.535-1.477-3.098-1.709-.025.024ZM46.258 31.65c-1.988 1.397-4.17.947-5.71-1.243l-.004-.005c-1.54-2.19-1.215-4.39.768-5.784 1.648-1.16 3.563-.95 4.708.398l.034.04-1.384.973-.075-.067c-.687-.636-1.587-.735-2.435-.138-1.088.765-1.169 2.131-.168 3.553l.003.005c1.007 1.432 2.327 1.827 3.415 1.062.82-.577 1.062-1.452.68-2.386l-.024-.054 1.384-.974.032.055c.885 1.539.42 3.408-1.224 4.564ZM50.829 28.5l-3.687-7.446 1.558-.772 1.687 3.406.036-.018 1.043-4.757 1.734-.859-1.04 4.608 4.918 2.744-1.863.922-3.687-2.087-.27 1.206 1.13 2.281-1.56.771ZM69.695 21.884l-1.05-6.795-2.372.367-.22-1.417 6.47-1 .22 1.418-2.38.367 1.05 6.794-1.718.266ZM79.634 21.144c-2.47 0-4.007-1.652-4.007-4.295v-.012c0-2.643 1.548-4.29 4.007-4.29 2.464 0 4.007 1.653 4.007 4.29v.012c0 2.642-1.537 4.295-4.007 4.295Zm0-1.474c1.382 0 2.234-1.1 2.234-2.821v-.012c0-1.733-.87-2.815-2.234-2.815-1.359 0-2.234 1.076-2.234 2.815v.012c0 1.738.87 2.82 2.234 2.82ZM96.095 23.513l2.074-6.554-2.289-.725.433-1.367 6.241 1.976-.432 1.367-2.295-.727-2.074 6.555-1.658-.525ZM105.394 27.37c-2.214-1.095-2.858-3.258-1.686-5.627l.005-.01c1.173-2.368 3.292-3.157 5.495-2.066 2.208 1.094 2.858 3.26 1.688 5.622l-.005.01c-1.173 2.37-3.284 3.168-5.497 2.072Zm.654-1.32c1.238.613 2.49.006 3.254-1.537l.005-.01c.769-1.554.47-2.91-.753-3.515-1.218-.603-2.48-.026-3.251 1.532l-.005.01c-.772 1.559-.473 2.915.75 3.52ZM110.386 29.938l4.78-6.796 2.732 1.922c1.432 1.006 1.738 2.602.754 4l-.006.01c-.984 1.399-2.589 1.65-4.021.642l-1.309-.92-1.507 2.142-1.423-1Zm6.372-3.994-.961-.676-1.699 2.416.96.676c.815.573 1.6.478 2.143-.295l.007-.01c.543-.772.364-1.538-.45-2.111ZM132.992 56.59l7.819-2.808 1.222 3.403c.53 1.474.104 2.673-1.099 3.105l-.011.004a1.84 1.84 0 0 1-2.244-.9l-.033.01c.31 1.12-.177 2.181-1.201 2.55l-.011.003c-1.371.492-2.599-.235-3.199-1.904l-1.243-3.463Zm7.676.608-.483-1.344-2.054.738.411 1.143c.331.922.893 1.276 1.57 1.033l.011-.004c.623-.224.819-.802.545-1.566Zm-3.167 1.131-.48-1.338-2.222.798.506 1.409c.336.937.906 1.314 1.632 1.053l.011-.004c.715-.257.913-.915.553-1.918ZM135.703 64.528l8.709 1.267.389 2.007-7.605 4.425-.347-1.792 1.859-1-.56-2.882-2.097-.233-.348-1.792Zm7.317 2.558-3.517-.385.405 2.091 3.119-1.672-.007-.034ZM137.27 77.073c-.093-2.428 1.471-4.015 4.146-4.117h.006c2.675-.103 4.345 1.366 4.438 3.788.077 2.014-1.139 3.507-2.894 3.735l-.051.008-.065-1.692.097-.026c.907-.231 1.479-.933 1.44-1.969-.051-1.329-1.154-2.14-2.892-2.073h-.005c-1.749.068-2.798.96-2.747 2.29.038 1 .64 1.68 1.633 1.867l.058.01.064 1.691-.063-.003c-1.773-.093-3.088-1.5-3.165-3.509ZM137.429 82.622l8.253.953-.199 1.727-3.775-.435-.005.04 3.426 3.461-.222 1.922-3.302-3.378-4.976 2.637.238-2.065 3.756-1.96-.866-.883-2.528-.291.2-1.728ZM132.727 102.054l6.273 2.812.982-2.191 1.308.587-2.678 5.973-1.308-.586.985-2.196-6.274-2.812.712-1.587ZM127.828 110.849c1.343-2.074 3.565-2.466 5.784-1.029l.009.006c2.219 1.437 2.759 3.632 1.423 5.695-1.34 2.069-3.566 2.466-5.779 1.032l-.01-.006c-2.218-1.436-2.77-3.625-1.427-5.698Zm1.237.801c-.751 1.16-.291 2.473 1.154 3.409l.01.006c1.454.942 2.836.801 3.577-.345.739-1.14.311-2.46-1.149-3.405l-.009-.007c-1.46-.945-2.841-.803-3.583.342ZM117.009 123.327l4.374 5.304 1.852-1.527.912 1.106-5.05 4.165-.912-1.106 1.856-1.531-4.374-5.304 1.342-1.107ZM108.716 129.035c2.124-1.262 4.289-.627 5.64 1.645l.006.01c1.35 2.271.861 4.478-1.253 5.735-2.118 1.259-4.289.627-5.636-1.64l-.006-.01c-1.351-2.271-.874-4.477 1.249-5.74Zm.754 1.267c-1.188.707-1.359 2.087-.479 3.567l.006.01c.886 1.49 2.186 1.976 3.359 1.279 1.168-.695 1.37-2.067.481-3.562l-.005-.01c-.889-1.495-2.189-1.981-3.362-1.284ZM103.848 131.831l3.105 7.706-3.097 1.248c-1.623.655-3.129.045-3.769-1.541l-.004-.011c-.64-1.586.023-3.07 1.647-3.724l1.484-.598-.979-2.43 1.613-.65Zm-.111 7.519 1.089-.439-1.104-2.74-1.089.439c-.924.372-1.271 1.083-.918 1.959l.004.011c.353.876 1.094 1.142 2.018.77Z" fill="#fff"/><circle cx="129" cy="41" r="2" fill="#D9D9D9"/><circle cx="89" cy="142" r="2" fill="#D9D9D9"/><circle cx="21" cy="58" r="2" fill="#D9D9D9"/></svg>