<svg width="196" height="196" fill="none" xmlns="http://www.w3.org/2000/svg"><path d="M41.671 85.704c-.347 1.638-1.321 2.535-2.61 2.346l-.077-.011.29-1.361.054.001c.554.023 1.009-.475 1.176-1.263.17-.797-.073-1.373-.598-1.484l-.005-.001c-.468-.1-.774.19-1.132 1.007l-.298.696c-.56 1.304-1.356 1.854-2.393 1.634l-.005-.001c-1.26-.268-1.859-1.543-1.534-3.071.338-1.596 1.343-2.406 2.566-2.216l.092.014-.289 1.362-.058-.008c-.555-.043-.99.384-1.141 1.096-.152.742.092 1.258.584 1.362l.005.001c.435.092.763-.207 1.089-.967l.303-.7c.593-1.381 1.318-1.906 2.402-1.676h.005c1.323.282 1.943 1.501 1.574 3.24ZM45.917 76.37c-.78 1.907-2.545 2.583-4.646 1.723l-.005-.002c-2.1-.86-2.874-2.58-2.095-4.483.647-1.581 2.11-2.307 3.545-1.867l.042.012-.544 1.329-.084-.014c-.781-.14-1.47.2-1.802 1.014-.428 1.044.139 2.057 1.504 2.615l.004.002c1.374.563 2.497.242 2.925-.802.321-.787.095-1.523-.605-2.015l-.042-.028.544-1.329.048.025c1.335.695 1.857 2.243 1.211 3.82ZM49.172 69.43l-5.94-3.791 1.566-2.453c.852-1.334 2.064-1.672 3.258-.91l.008.005c.782.499 1.167 1.33 1.006 2.154l3.136.24-.898 1.408-2.86-.266-.635.996 2.152 1.373-.793 1.243ZM46.87 66.21l.686-1.074c.394-.618.28-1.211-.304-1.584l-.008-.006c-.568-.362-1.18-.202-1.571.41l-.675 1.059 1.872 1.195ZM56.857 59.418c-1.424 1.537-3.338 1.54-4.982.016l-.007-.007c-1.643-1.523-1.774-3.436-.357-4.965 1.42-1.533 3.338-1.54 4.978-.019l.007.007c1.644 1.523 1.785 3.432.361 4.968Zm-.917-.85c.797-.859.605-2.023-.466-3.015l-.007-.007c-1.078-1-2.252-1.083-3.04-.234-.783.845-.618 2.01.464 3.013l.007.006c1.081 1.003 2.256 1.086 3.042.237ZM62.561 53.957l-4.228-5.636 1.18-.885 3.498 4.663 2.464-1.849.73.973-3.644 2.734ZM70.925 48.421l-3.154-6.3 1.318-.66 2.61 5.213 2.755-1.38.545 1.088-4.074 2.04ZM88.73 42.35l-.74-7.007 2.675-.283c2.098-.221 3.473.896 3.707 3.115l.001.01c.235 2.224-.866 3.66-2.968 3.882l-2.676.283Zm1.337-1.37 1.035-.108c1.31-.139 1.936-1.01 1.776-2.525l-.001-.01c-.154-1.461-.972-2.185-2.259-2.05l-1.034.11.483 4.584ZM102.051 42.042c-2.089-.156-3.285-1.65-3.118-3.885v-.01c.167-2.235 1.581-3.53 3.66-3.375 2.084.155 3.285 1.65 3.119 3.88l-.001.01c-.167 2.235-1.571 3.536-3.66 3.38Zm.093-1.247c1.169.087 1.959-.789 2.067-2.245l.001-.01c.109-1.465-.558-2.435-1.712-2.521-1.149-.086-1.957.77-2.067 2.24v.01c-.11 1.47.557 2.44 1.711 2.526ZM109.273 42.94l-.036-7.29 1.48.385-.191 5.166.028.008 2.526-4.561 1.252.325-.011 5.213.029.008 2.35-4.607 1.48.384-3.581 6.35-1.394-.361-.066-4.896-.029-.007-2.443 4.244-1.394-.362ZM118.269 45.651l2.959-6.394 1.17.541.966 5.494.026.012 1.924-4.157 1.334.618-2.96 6.394-1.161-.537-.96-5.529-.026-.012-1.938 4.187-1.334-.617ZM137.228 58.48c-1.176-1.193-1.388-2.5-.521-3.47l.052-.059.977.991-.031.045c-.325.45-.16 1.104.405 1.677.573.581 1.187.696 1.569.319l.004-.004c.34-.336.267-.75-.218-1.5l-.416-.631c-.779-1.186-.8-2.153-.045-2.897l.003-.004c.918-.905 2.311-.702 3.408.411 1.145 1.162 1.268 2.447.436 3.363l-.063.068-.977-.99.039-.045c.341-.44.224-1.038-.286-1.556-.535-.535-1.101-.615-1.459-.262l-.004.003c-.316.312-.247.751.208 1.441l.417.639c.826 1.255.865 2.15.075 2.928l-.003.004c-.963.95-2.322.794-3.57-.471ZM143.672 66.333c-1.161-1.702-.753-3.547 1.122-4.827l.004-.002c1.876-1.28 3.737-.978 4.896.72.963 1.412.762 3.032-.395 3.987l-.033.03-.809-1.187.057-.063c.548-.574.643-1.337.147-2.063-.636-.931-1.793-1.016-3.011-.185l-.004.003c-1.226.836-1.577 1.95-.941 2.882.478.702 1.218.919 2.015.606l.045-.02.81 1.186-.048.026c-1.315.732-2.894.315-3.855-1.093ZM147.672 72.873l6.435-2.869 1.185 2.658c.644 1.445.259 2.643-1.035 3.22l-.009.004c-.847.378-1.753.241-2.352-.347l-1.929 2.485-.679-1.525 1.797-2.24-.481-1.08-2.332 1.04-.6-1.346Zm3.954-.148.519 1.164c.298.669.856.901 1.489.619l.009-.004c.615-.274.819-.873.523-1.538l-.511-1.146-2.029.905ZM151.793 84.802c-.497-2.035.554-3.635 2.731-4.167l.01-.002c2.177-.532 3.845.412 4.341 2.437.496 2.03-.555 3.634-2.727 4.165l-.01.003c-2.177.532-3.848-.402-4.345-2.436Zm1.214-.297c.279 1.138 1.356 1.619 2.774 1.272l.01-.002c1.427-.35 2.144-1.284 1.869-2.408-.273-1.12-1.337-1.623-2.769-1.273l-.01.002c-1.432.35-2.149 1.284-1.874 2.409ZM153.209 92.57l7.033-.423.089 1.472-5.82.35.186 3.076-1.214.073-.274-4.547ZM153.221 102.601l6.996.838-.176 1.464-5.788-.694-.367 3.06-1.207-.145.542-4.523ZM148.48 120.804l6.255 3.243-1.238 2.389c-.971 1.873-2.661 2.405-4.642 1.378l-.008-.005c-1.986-1.029-2.579-2.739-1.605-4.616l1.238-2.389Zm.405 1.871-.479.924c-.607 1.17-.224 2.171 1.129 2.873l.008.004c1.305.677 2.36.393 2.955-.756l.479-.923-4.092-2.122ZM141.398 132.092c1.28-1.658 3.186-1.832 4.96-.462l.007.006c1.774 1.37 2.076 3.263.801 4.913-1.278 1.654-3.187 1.833-4.956.465l-.008-.006c-1.773-1.37-2.085-3.258-.804-4.916Zm.989.764c-.717.928-.421 2.07.735 2.962l.007.006c1.163.899 2.341.877 3.048-.039.705-.912.436-2.057-.731-2.959l-.008-.006c-1.167-.902-2.344-.879-3.051.036ZM136.67 137.625l6.103 3.985-1.136 1.024-4.207-3.006-.021.02 2.415 4.62-.962.866-4.344-2.881-.022.019 2.549 4.5-1.135 1.023-3.328-6.486 1.07-.965 4.122 2.642.022-.02-2.196-4.377 1.07-.964ZM129.451 143.639l3.707 5.992-1.097.678-5.116-2.221-.025.016 2.409 3.895-1.25.773-3.706-5.992 1.088-.673 5.143 2.244.025-.015-2.428-3.924 1.25-.773ZM108.3 152.394c1.643-.325 2.85.219 3.183 1.477l.02.075-1.365.27-.02-.051c-.197-.518-.833-.741-1.623-.585-.8.158-1.234.607-1.13 1.134v.004c.093.47.48.637 1.372.645h.757c1.419.004 2.237.519 2.442 1.559l.001.005c.25 1.264-.687 2.315-2.22 2.618-1.6.316-2.74-.29-3.046-1.489l-.023-.09 1.365-.27.016.057c.179.527.742.759 1.456.618.742-.151 1.12-.579 1.023-1.073l-.001-.004c-.086-.436-.491-.62-1.317-.621l-.763-.004c-1.503-.002-2.271-.463-2.486-1.55v-.005c-.262-1.327.616-2.376 2.359-2.72ZM98.196 153.446c2.06-.032 3.375 1.325 3.41 3.595v.005c.035 2.27-1.242 3.657-3.298 3.689-1.709.026-2.95-1.034-3.11-2.526l-.006-.044 1.436-.022.02.083c.178.774.762 1.273 1.64 1.259 1.129-.017 1.837-.936 1.815-2.411v-.005c-.023-1.484-.76-2.391-1.888-2.373-.85.013-1.437.51-1.615 1.348l-.009.049-1.435.022.004-.054c.114-1.501 1.332-2.589 3.036-2.615ZM90.535 153.181l-1.151 6.951-2.872-.475c-1.56-.259-2.348-1.241-2.117-2.638l.002-.009c.152-.916.764-1.596 1.585-1.772l-1.01-2.979 1.647.273.878 2.734 1.166.193.417-2.519 1.455.241Zm-2.055 3.382-1.257-.209c-.723-.119-1.224.218-1.338.902l-.001.01c-.11.665.277 1.164.995 1.283l1.238.205.363-2.191ZM78.309 150.049c1.972.706 2.727 2.465 1.972 4.575l-.003.009c-.755 2.11-2.463 2.982-4.425 2.28-1.968-.704-2.728-2.465-1.974-4.57l.003-.01c.755-2.11 2.455-2.99 4.427-2.284Zm-.421 1.177c-1.104-.395-2.098.24-2.59 1.614l-.004.009c-.495 1.384-.11 2.497.98 2.887 1.085.388 2.091-.221 2.588-1.61l.003-.009c.497-1.388.112-2.501-.977-2.891ZM71.045 146.951l-3.52 6.103-1.278-.737 2.913-5.05-2.669-1.54.608-1.053 3.946 2.277ZM62.668 141.435l-4.554 5.377-1.125-.953 3.768-4.449-2.352-1.991.786-.928 3.477 2.944ZM50.087 127.45l-6.152 3.434-1.312-2.349c-1.027-1.842-.54-3.545 1.408-4.633l.008-.005c1.953-1.089 3.707-.642 4.737 1.204l1.311 2.349Zm-1.784-.692-.507-.909c-.643-1.151-1.69-1.383-3.02-.641l-.008.005c-1.284.716-1.628 1.753-.997 2.883l.507.908 4.025-2.246ZM44.568 115.321c.678 1.982-.226 3.669-2.346 4.394l-.01.004c-2.12.725-3.867-.066-4.541-2.039-.677-1.977.226-3.669 2.342-4.393l.01-.003c2.12-.725 3.868.055 4.545 2.037Zm-1.182.405c-.38-1.109-1.496-1.491-2.877-1.019l-.01.003c-1.39.476-2.02 1.471-1.646 2.566.373 1.09 1.477 1.497 2.873 1.02l.009-.004c1.395-.477 2.025-1.471 1.65-2.566ZM42.555 108.328l-6.688 2.897-.228-1.511 4.825-1.855-.004-.029-5.186-.53-.194-1.279 4.799-2.039-.005-.029-5.16-.351-.227-1.511 7.246.796.215 1.424-4.475 1.985.004.029 4.863.579.215 1.424ZM41.513 98.99l-7.043-.208.038-1.288 4.672-3.047.001-.03-4.578-.135.044-1.469 7.042.208-.038 1.279-4.706 3.056v.029l4.611.136-.043 1.47Z" fill="#fff"/></svg>